<?xml version="1.0" encoding="UTF-8" standalone="no"?>
<!DOCTYPE svg PUBLIC "-//W3C//DTD SVG 1.1//EN"
 "http://www.w3.org/Graphics/SVG/1.1/DTD/svg11.dtd">
<!-- Generated by graphviz version 2.50.0 (20211209.1537)
 -->
<!-- Title: g Pages: 1 -->
<svg width="510pt" height="368pt"
 viewBox="0.00 0.00 509.57 368.00" xmlns="http://www.w3.org/2000/svg" xmlns:xlink="http://www.w3.org/1999/xlink">
<g id="graph0" class="graph" transform="scale(1 1) rotate(0) translate(4 364)">
<title>g</title>
<g id="node1" class="node">
<title></title>
<g id="a_node1"><a xlink:href=".">
<ellipse fill="white" stroke="#666666" cx="5.5" cy="-129" rx="5.5" ry="5.5"/>
</a>
</g>
</g>
<!-- markdown -->
<g id="node2" class="node">
<title>markdown</title>
<g id="a_node2"><a xlink:href="markdown">
<ellipse fill="white" stroke="#666666" cx="192.13" cy="-231" rx="5.5" ry="5.5"/>
</a>
</g>
</g>
<!-- &#45;&gt;markdown -->
<g id="edge1" class="edge">
<title>&#45;&gt;markdown</title>
<path fill="none" stroke="#999999" d="M10.7,-131.32C33.76,-144.06 145.11,-205.57 180.38,-225.06"/>
<polygon fill="#999999" stroke="#999999" points="187.01,-228.73 178.81,-228.05 183.73,-226.91 180.45,-225.1 180.45,-225.1 180.45,-225.1 183.73,-226.91 182.08,-222.14 187.01,-228.73 187.01,-228.73"/>
<text text-anchor="middle" x="88.06" y="-189" font-family="Helvetica,sans-Serif" font-size="10.00">markdown</text>
</g>
<!-- images -->
<g id="node6" class="node">
<title>images</title>
<g id="a_node6"><a xlink:href="images" xlink:title="Images\l">
<polygon fill="white" stroke="#b3b3b3" points="219.13,-147 165.13,-147 165.13,-111 219.13,-111 219.13,-147"/>
<text text-anchor="start" x="175.73" y="-126" font-family="Helvetica,sans-Serif" font-size="10.00">Images</text>
</a>
</g>
</g>
<!-- &#45;&gt;images -->
<g id="edge5" class="edge">
<title>&#45;&gt;images</title>
<path fill="none" stroke="#999999" d="M11.05,-128.79C20.89,-128.35 44.88,-127.34 65,-127 96.35,-126.46 132.09,-127.15 157.5,-127.86"/>
<polygon fill="#999999" stroke="#999999" points="165.04,-128.09 157.44,-131.24 161.29,-127.98 157.54,-127.87 157.54,-127.87 157.54,-127.87 161.29,-127.98 157.64,-124.49 165.04,-128.09 165.04,-128.09"/>
<text text-anchor="middle" x="88.06" y="-130" font-family="Helvetica,sans-Serif" font-size="10.00">images</text>
</g>
<!-- src -->
<g id="node7" class="node">
<title>src</title>
<g id="a_node7"><a xlink:href="src">
<ellipse fill="white" stroke="#666666" cx="192.13" cy="-21" rx="5.5" ry="5.5"/>
</a>
</g>
</g>
<!-- &#45;&gt;src -->
<g id="edge6" class="edge">
<title>&#45;&gt;src</title>
<path fill="none" stroke="#999999" d="M10.7,-126.54C33.76,-113.06 145.11,-47.92 180.38,-27.29"/>
<polygon fill="#999999" stroke="#999999" points="187.01,-23.41 182.24,-30.11 183.77,-25.3 180.54,-27.19 180.54,-27.19 180.54,-27.19 183.77,-25.3 178.83,-24.28 187.01,-23.41 187.01,-23.41"/>
<text text-anchor="middle" x="88.06" y="-98" font-family="Helvetica,sans-Serif" font-size="10.00">src</text>
</g>
<!-- markdown/2025&#45;07&#45;04.md -->
<g id="node3" class="node">
<title>markdown/2025&#45;07&#45;04.md</title>
<g id="a_node3"><a xlink:href="markdown/2025-07-04.md" xlink:title="First post\l">
<polygon fill="white" stroke="#b3b3b3" points="476.88,-360 419.64,-360 419.64,-324 476.88,-324 476.88,-360"/>
<text text-anchor="start" x="427.7" y="-339" font-family="Helvetica,sans-Serif" font-size="10.00">First post</text>
</a>
</g>
</g>
<!-- markdown&#45;&gt;markdown/2025&#45;07&#45;04.md -->
<g id="edge2" class="edge">
<title>markdown&#45;&gt;markdown/2025&#45;07&#45;04.md</title>
<path fill="none" stroke="#999999" d="M197.54,-232.93C222.8,-243.96 350.15,-299.58 412.61,-326.87"/>
<polygon fill="#999999" stroke="#999999" points="419.53,-329.89 411.31,-329.98 416.1,-328.39 412.66,-326.89 412.66,-326.89 412.66,-326.89 416.1,-328.39 414.01,-323.79 419.53,-329.89 419.53,-329.89"/>
<text text-anchor="middle" x="307.04" y="-296" font-family="Helvetica,sans-Serif" font-size="10.00">2025&#45;07&#45;04.md</text>
</g>
<!-- markdown/2025&#45;07&#45;07.md -->
<g id="node4" class="node">
<title>markdown/2025&#45;07&#45;07.md</title>
<g id="a_node4"><a xlink:href="markdown/2025-07-07.md" xlink:title="Second post\l">
<polygon fill="white" stroke="#b3b3b3" points="483.85,-252 412.66,-252 412.66,-216 483.85,-216 483.85,-252"/>
<text text-anchor="start" x="420.46" y="-231" font-family="Helvetica,sans-Serif" font-size="10.00">Second post</text>
</a>
</g>
</g>
<!-- markdown&#45;&gt;markdown/2025&#45;07&#45;07.md -->
<g id="edge3" class="edge">
<title>markdown&#45;&gt;markdown/2025&#45;07&#45;07.md</title>
<path fill="none" stroke="#999999" d="M197.98,-231.06C223.17,-231.35 340.37,-232.74 404.7,-233.5"/>
<polygon fill="#999999" stroke="#999999" points="412.28,-233.59 404.74,-236.87 408.53,-233.54 404.78,-233.5 404.78,-233.5 404.78,-233.5 408.53,-233.54 404.82,-230.12 412.28,-233.59 412.28,-233.59"/>
<text text-anchor="middle" x="307.04" y="-235" font-family="Helvetica,sans-Serif" font-size="10.00">2025&#45;07&#45;07.md</text>
</g>
<!-- markdown/2025&#45;07&#45;10.md -->
<g id="node5" class="node">
<title>markdown/2025&#45;07&#45;10.md</title>
<g id="a_node5"><a xlink:href="markdown/2025-07-10.md" xlink:title="Third post\l">
<polygon fill="white" stroke="#b3b3b3" points="478.72,-144 417.79,-144 417.79,-108 478.72,-108 478.72,-144"/>
<text text-anchor="start" x="426.03" y="-123" font-family="Helvetica,sans-Serif" font-size="10.00">Third post</text>
</a>
</g>
</g>
<!-- markdown&#45;&gt;markdown/2025&#45;07&#45;10.md -->
<g id="edge4" class="edge">
<title>markdown&#45;&gt;markdown/2025&#45;07&#45;10.md</title>
<path fill="none" stroke="#999999" d="M197.54,-229.18C222.54,-218.85 347.6,-167.18 410.71,-141.1"/>
<polygon fill="#999999" stroke="#999999" points="417.72,-138.21 412.07,-144.19 414.25,-139.64 410.79,-141.07 410.79,-141.07 410.79,-141.07 414.25,-139.64 409.5,-137.95 417.72,-138.21 417.72,-138.21"/>
<text text-anchor="middle" x="307.04" y="-200" font-family="Helvetica,sans-Serif" font-size="10.00">2025&#45;07&#45;10.md</text>
</g>
<!-- src/assets -->
<g id="node8" class="node">
<title>src/assets</title>
<g id="a_node8"><a xlink:href="src/assets" xlink:title="Stylesheet and fonts\l">
<polygon fill="white" stroke="#b3b3b3" points="501.37,-36 395.14,-36 395.14,0 501.37,0 501.37,-36"/>
<text text-anchor="start" x="402.95" y="-15" font-family="Helvetica,sans-Serif" font-size="10.00">Stylesheet and fonts</text>
</a>
</g>
</g>
<!-- src&#45;&gt;src/assets -->
<g id="edge7" class="edge">
<title>src&#45;&gt;src/assets</title>
<path fill="none" stroke="#999999" d="M197.98,-20.94C221.02,-20.67 321.09,-19.49 387.22,-18.71"/>
<polygon fill="#999999" stroke="#999999" points="395.11,-18.62 387.65,-22.08 391.36,-18.66 387.61,-18.7 387.61,-18.7 387.61,-18.7 391.36,-18.66 387.57,-15.33 395.11,-18.62 395.11,-18.62"/>
<text text-anchor="middle" x="307.04" y="-24" font-family="Helvetica,sans-Serif" font-size="10.00">assets</text>
</g>
</g>
</svg>
